<svg version="1.1" xmlns="http://www.w3.org/2000/svg" xmlns:xlink="http://www.w3.org/1999/xlink" viewBox="0 0 120 120" width="120" height="120">
  <g fill="#8CC84B">
    <path d="M60,0C26.8,0,0,26.8,0,60s26.8,60,60,60s60-26.8,60-60S93.2,0,60,0z M83.7,56.1c0,2.8-0.4,5.4-1.1,7.8 c-0.8,2.4-1.9,4.5-3.4,6.3c-1.5,1.7-3.4,3-5.5,4c-2.1,0.9-4.3,1.3-6.7,1.3c-2.3,0-4.5-0.4-6.7-1.2 c-2.1-0.8-4-2-5.6-3.6c-1.5-1.6-2.6-3.5-3.3-5.5c-0.7-2-1.1-4.1-1.1-6.3c0-2.3,0.4-4.3,1.1-6.3 c0.7-2,1.8-3.9,3.3-5.5c1.6-1.6,3.5-2.8,5.6-3.6c2.2-0.8,4.4-1.2,6.7-1.2c2.4,0,4.6,0.4,6.7,1.3c2.1,0.9,4,2.3,5.5,4 c1.5,1.7,2.6,3.9,3.4,6.3C83.3,50.8,83.7,53.4,83.7,56.1z M69.1,56.1c0-3.5-0.6-6.4-1.7-8.5 c-1.1-2.1-2.7-3.5-4.8-4.3c-2.1-0.8-4.3-1.2-6.5-1.2c-2.2,0-4.4,0.4-6.5,1.2c-2.1,0.8-3.7,2.2-4.8,4.3 c-1.1,2.1-1.7,4.9-1.7,8.5c0,3.5,0.6,6.4,1.7,8.5c1.1,2.1,2.7,3.5,4.8,4.3c2.1,0.8,4.3,1.2,6.5,1.2 c2.2,0,4.4-0.4,6.5-1.2c2.1-0.8,3.7-2.2,4.8-4.3C68.5,62.5,69.1,59.6,69.1,56.1z"/>
    <path d="M60,6.8c-29.1,0-53.2,24.1-53.2,53.2c0,29.1,24.1,53.2,53.2,53.2c29.1,0,53.2-24.1,53.2-53.2 C113.2,30.9,89.1,6.8,60,6.8z"/>
  </g>
  <path fill="#fff" d="M60,40.4c-10.6,0-19.3,8.7-19.3,19.3c0,10.6,8.7,19.3,19.3,19.3c10.6,0,19.3-8.7,19.3-19.3 C79.3,49.1,70.6,40.4,60,40.4z"/>
</svg>
